<?xml version="1.0" encoding="utf-8"?>
<!-- Generator: Adobe Illustrator 18.0.0, SVG Export Plug-In . SVG Version: 6.00 Build 0)  -->
<!DOCTYPE svg PUBLIC "-//W3C//DTD SVG 1.1//EN" "http://www.w3.org/Graphics/SVG/1.1/DTD/svg11.dtd">
<svg version="1.1" id="Layer_1" xmlns="http://www.w3.org/2000/svg" xmlns:xlink="http://www.w3.org/1999/xlink" x="0px" y="0px"
	 viewBox="0 704 3428 912" enable-background="new 0 704 3428 912" xml:space="preserve">
<g>
	<path fill="#243444" d="M936.4,904.2v227.2c0,25.9-5.8,48.7-17.4,68.2c-11.6,19.5-28.4,34.5-50.3,44.9
		c-21.9,10.4-47.9,15.6-77.8,15.6c-45.1,0-80.2-11.6-105.2-34.7c-25-23.1-37.5-54.8-37.5-95V904.2h74.2v214.9
		c0,27.1,5.4,46.9,16.3,59.5c10.9,12.6,28.9,19,54,19c24.3,0,42-6.4,52.9-19.1c11-12.7,16.5-32.7,16.5-59.9V904.2H936.4z"/>
	<path fill="#243444" d="M1096.8,1102.3v91.5h48.5c20.5,0,35.6-3.9,45.4-11.8c9.8-7.8,14.6-19.8,14.6-36c0-29.1-20.8-43.7-62.4-43.7
		H1096.8z M1096.8,1043.2h43.2c20.2,0,34.8-3.1,43.8-9.4c9-6.2,13.6-16.6,13.6-31c0-13.4-4.9-23.1-14.8-28.9
		c-9.8-5.8-25.4-8.8-46.7-8.8h-39.1V1043.2z M1022.4,904.2h109.3c49.8,0,85.9,7.1,108.4,21.2c22.5,14.2,33.7,36.7,33.7,67.6
		c0,21-4.9,38.2-14.8,51.6c-9.9,13.4-22.9,21.5-39.3,24.2v2.4c22.2,5,38.3,14.3,48.2,27.9c9.8,13.6,14.8,31.7,14.8,54.3
		c0,32-11.6,57-34.7,74.9c-23.1,17.9-54.6,26.9-94.2,26.9h-131.4V904.2z"/>
	<rect x="1352.8" y="904.2" fill="#243444" width="74.4" height="351.1"/>
	<path fill="#243444" d="M1664.7,961.1c-28,0-49.7,10.5-65.1,31.6c-15.4,21-23.1,50.4-23.1,88c0,78.3,29.4,117.4,88.1,117.4
		c24.6,0,54.5-6.2,89.6-18.5v62.4c-28.8,12-61,18-96.5,18c-51.1,0-90.1-15.5-117.2-46.5c-27.1-31-40.6-75.4-40.6-133.4
		c0-36.5,6.6-68.5,19.9-95.9c13.3-27.5,32.4-48.5,57.3-63.2c24.9-14.6,54.1-22,87.5-22c34.1,0,68.4,8.3,102.8,24.7l-24,60.5
		c-13.1-6.3-26.3-11.7-39.6-16.3C1690.6,963.4,1677.5,961.1,1664.7,961.1"/>
	<path fill="#EFC319" d="M2159,1161.8c0,30.9-11.2,55-33.6,72.3c-22.4,17.3-52.8,25.9-91.2,25.9c-41.6,0-73.6-5.4-96-16.1v-39.4
		c14.4,6.1,30.1,10.9,47.1,14.4c17,3.5,33.8,5.3,50.4,5.3c27.2,0,47.7-5.2,61.5-15.5c13.8-10.3,20.6-24.7,20.6-43.1
		c0-12.2-2.4-22.1-7.3-29.9c-4.9-7.8-13.1-14.9-24.5-21.5c-11.4-6.6-28.9-14-52.2-22.3c-32.7-11.7-56-25.5-70-41.5
		c-14-16-21-36.9-21-62.7c0-27,10.2-48.6,30.5-64.6c20.3-16,47.2-24,80.7-24c34.9,0,67,6.4,96.3,19.2l-12.7,35.5
		c-29-12.2-57.2-18.3-84.5-18.3c-21.6,0-38.5,4.6-50.7,13.9c-12.2,9.3-18.2,22.2-18.2,38.7c0,12.2,2.2,22.1,6.7,29.9
		c4.5,7.8,12.1,14.9,22.7,21.4c10.6,6.5,26.9,13.7,48.9,21.5c36.8,13.1,62.2,27.2,76,42.3C2152.1,1118.3,2159,1137.8,2159,1161.8"/>
	<path fill="#EFC319" d="M2271.6,1082.1h36.7c36.2,0,62.4-5.8,78.5-17.5c16.2-11.7,24.2-30.4,24.2-56.2c0-23.2-7.6-40.5-22.8-51.9
		c-15.2-11.4-38.9-17.1-71.1-17.1h-45.6V1082.1z M2453.4,1006.5c0,35.5-12.1,62.9-36.4,82c-24.3,19.1-59,28.7-104.1,28.7h-41.3
		v138.1h-40.8V904.2h91C2409.5,904.2,2453.4,938.3,2453.4,1006.5"/>
	<path fill="#EFC319" d="M2691.1,1106.8l-40.8-108.8c-5.3-13.8-10.7-30.7-16.3-50.7c-3.5,15.4-8.6,32.3-15.1,50.7l-41.3,108.8
		H2691.1z M2747.6,1255.2l-43.7-111.7h-140.7l-43.2,111.7h-41.3l138.8-352.5h34.3l138.1,352.5H2747.6z"/>
	<path fill="#EFC319" d="M2988.4,935.6c-38.6,0-69,12.8-91.4,38.5c-22.3,25.7-33.5,60.9-33.5,105.5c0,46,10.8,81.4,32.3,106.5
		c21.5,25.1,52.2,37.6,92.1,37.6c24.5,0,52.4-4.4,83.8-13.2v35.8c-24.3,9.1-54.4,13.7-90.1,13.7c-51.7,0-91.6-15.7-119.7-47.1
		c-28.1-31.4-42.1-76-42.1-133.8c0-36.2,6.8-67.9,20.3-95.1c13.5-27.2,33-48.2,58.6-62.9c25.5-14.7,55.6-22.1,90.2-22.1
		c36.8,0,69,6.7,96.5,20.2l-17.3,35.1C3041.5,941.9,3015,935.6,2988.4,935.6"/>
	<polygon fill="#EFC319" points="3344,1255.2 3148.3,1255.2 3148.3,904.2 3344,904.2 3344,940.4 3189.2,940.4 3189.2,1053.5 
		3334.7,1053.5 3334.7,1089.6 3189.2,1089.6 3189.2,1218.7 3344,1218.7 	"/>
	<path fill="#EFC319" d="M527.3,1056.3c0,104.1-84.4,188.5-188.5,188.5s-188.5-84.4-188.5-188.5c0-104.1,84.4-188.5,188.5-188.5
		S527.3,952.3,527.3,1056.3"/>
	<path fill="#243444" d="M479,1158.3c0,0-20.9,28.3-29.4,36.6c-1.3,1.3-3.3,3-5.6,4.8v-197.3l-90.9-51.5V1240
		c-4.6,0.3-9.5,0.3-14.7,0.3c-4.7,0-9.3-0.2-13.9-0.6V950.9l-90.9,51.5l-1.9,196.3c-36-32.4-58.9-80.9-58.9-135.3
		c0-98,74.4-177,165.6-177c91.9,0,166.3,79,166.3,177C504.8,1098.3,495.7,1131,479,1158.3 M353.2,1240c3.9-0.2,7.6-0.6,11.2-1
		C360.7,1239.5,357,1239.8,353.2,1240 M430.3,1117.9v15.5l-57.8-32.6v-15.5L430.3,1117.9z M430.3,1069.9v15.6l-57.8-32.6v-15.5
		L430.3,1069.9z M430.3,1040.2l-57.8-32.6v-15.5l57.8,32.6V1040.2z M308.3,1082v15.5l-57.7,32.6v-15.5L308.3,1082z M250.6,1037
		v-15.5l57.7-32.6v15.5L250.6,1037z M308.3,1034.1v15.5l-57.7,32.6v-15.5L308.3,1034.1z M538.2,1228.9
		c34.2-45.6,55.5-103.3,55.5-165.6c0-146.6-114.7-265.8-255.2-265.8C197.9,797.5,84,916.8,84,1063.3
		c0,146.6,113.9,265.9,254.5,265.9c49.4,0,95.7-14.4,134.4-40.3l19.8,24.3c9.1,10.6,22,16,34.2,16c9.9,0,20.5-3,28.9-10.6
		c9.9-8.4,16-21.3,16-34.2c0-9.9-3.8-19.7-10.6-28.1L538.2,1228.9z"/>
	<path fill="#243344" d="M1148.1,1502.4c5.1,0,9.5-0.9,13.2-2.6c3.7-1.7,7.6-4.5,11.6-8.3l9.6,9.8c-9.3,10.3-20.7,15.5-34,15.5
		s-24.4-4.3-33.1-12.9c-8.8-8.6-13.2-19.4-13.2-32.5c0-13.1,4.5-24,13.4-32.8c8.9-8.7,20.2-13.1,33.9-13.1c13.7,0,25.1,5,34.2,15.1
		l-9.5,10.3c-4.2-4-8.2-6.8-11.9-8.4c-3.7-1.6-8.1-2.4-13.2-2.4c-8.9,0-16.4,2.9-22.4,8.6c-6.1,5.8-9.1,13.1-9.1,22.1s3,16.4,9,22.4
		C1132.7,1499.4,1139.8,1502.4,1148.1,1502.4"/>
	<rect x="1200.6" y="1427.8" fill="#243344" width="14.9" height="88.1"/>
	<polygon fill="#243344" points="1280.2,1515.9 1263.6,1515.9 1228.1,1427.8 1244.8,1427.8 1271.9,1493.6 1299,1427.8 
		1315.6,1427.8 	"/>
	<rect x="1328.2" y="1427.8" fill="#243344" width="14.9" height="88.1"/>
	<polygon fill="#243344" points="1367.6,1515.9 1367.6,1427.8 1382.4,1427.8 1382.4,1501.8 1422.7,1501.8 1422.7,1515.9 	"/>
	<path fill="#243344" d="M1503.6,1436.9c-2.8,0-5.3,0.9-7.6,2.6c-2.2,1.8-3.3,3.8-3.3,6.2c0,2.3,0.6,4.5,1.7,6.4
		c1.1,1.9,3.1,4.5,5.9,7.9c9.5-4.7,14.3-9.1,14.3-13.1c0-3.4-1.1-5.9-3.3-7.5C1509,1437.7,1506.5,1436.9,1503.6,1436.9
		 M1486.2,1501.1c3.2,2.4,7.4,3.6,12.7,3.6c5.3,0,10.9-2.4,16.9-7.3c-8.5-8.9-15.2-16.4-20.2-22.4c-9.5,5.1-14.3,10.8-14.3,16.9
		C1481.4,1495.6,1483,1498.7,1486.2,1501.1 M1497.2,1516.9c-8.2,0-15.3-2.3-21-6.9c-5.8-4.6-8.7-10.9-8.7-18.8
		c0-9.5,6.9-17.9,20.7-25.3c-3.5-4-5.9-7.2-7.3-9.7c-1.4-2.5-2.1-5.7-2.1-9.6c0-6.7,2.5-11.9,7.4-15.5c5-3.6,10.8-5.4,17.5-5.4
		c6.7,0,12.4,1.7,17.2,5.2c4.7,3.4,7,8.3,7,14.5c0,8.3-6.7,16.2-20.2,23.6c6.7,8.2,12.2,14.5,16.4,18.9c2.6-3.9,4.6-8.4,6.1-13.5
		l10.3,7.3c-2.2,5.8-4.7,10.9-7.4,15.3c3.4,3.4,7.7,7.6,12.9,12.5l-9.5,8.8l-11.6-11.5C1517.5,1513.5,1508.3,1516.9,1497.2,1516.9"
		/>
	<rect x="1595.5" y="1427.8" fill="#243344" width="14.9" height="88.1"/>
	<polygon fill="#243344" points="1700.9,1427.8 1715.7,1427.8 1715.7,1515.9 1699.6,1515.9 1649.7,1451.6 1649.7,1515.9 
		1634.8,1515.9 1634.8,1427.8 1649.7,1427.8 1700.9,1493.6 	"/>
	<polygon fill="#243344" points="1773.5,1441.4 1773.5,1515.9 1758.6,1515.9 1758.6,1441.4 1731.9,1441.4 1731.9,1427.8 
		1800.2,1427.8 1800.2,1441.4 	"/>
	<polygon fill="#243344" points="1878.3,1427.8 1878.3,1441.8 1831.2,1441.8 1831.2,1465.1 1873.5,1465.1 1873.5,1478.3 
		1831.2,1478.3 1831.2,1501.9 1879.8,1501.9 1879.8,1515.9 1816.4,1515.9 1816.4,1427.8 	"/>
	<path fill="#243344" d="M1949.4,1468.9c3-2.6,4.5-6.8,4.5-12.5s-1.5-9.7-4.7-11.9c-3.1-2.2-8.7-3.2-16.6-3.2h-18.9v31.5h18.5
		C1940.6,1472.8,1946.3,1471.5,1949.4,1468.9 M1969.2,1456.4c0,14.5-6.4,23.7-19,27.5l23.1,32h-18.9l-21-29.6h-19.5v29.6h-14.9
		v-88.1h32.8c13.4,0,23.1,2.3,28.9,6.8C1966.2,1439.1,1969.2,1446.4,1969.2,1456.4"/>
	<rect x="1990.6" y="1427.8" fill="#243344" width="14.9" height="88.1"/>
	<path fill="#243344" d="M2092.8,1448.6c-6-6.2-13.4-9.3-22.1-9.3c-8.8,0-16.1,3.1-22.1,9.3c-6,6.2-9,13.8-9,22.6
		c0,8.9,3,16.4,9,22.6c6,6.2,13.4,9.3,22.1,9.3c8.7,0,16.1-3.1,22.1-9.3c6-6.2,9-13.8,9-22.6
		C2101.8,1462.3,2098.8,1454.8,2092.8,1448.6 M2103.7,1503.7c-8.9,8.7-19.9,13-33,13c-13.1,0-24.1-4.4-33-13
		c-8.9-8.7-13.4-19.5-13.4-32.5c0-13,4.5-23.8,13.4-32.5c8.9-8.7,19.9-13.1,33-13.1c13.1,0,24.1,4.4,33,13.1
		c8.9,8.7,13.4,19.5,13.4,32.5C2117,1484.2,2112.6,1495,2103.7,1503.7"/>
	<path fill="#243344" d="M2186.4,1468.9c3-2.6,4.5-6.8,4.5-12.5s-1.5-9.7-4.7-11.9c-3.1-2.2-8.7-3.2-16.6-3.2h-18.9v31.5h18.5
		C2177.6,1472.8,2183.3,1471.5,2186.4,1468.9 M2206.2,1456.4c0,14.5-6.4,23.7-19,27.5l23.1,32h-18.9l-21-29.6h-19.5v29.6h-14.9
		v-88.1h32.8c13.5,0,23.1,2.3,28.9,6.8C2203.3,1439.1,2206.2,1446.4,2206.2,1456.4"/>
	<path fill="#243344" d="M2254.3,1439.4c-4.3,0-7.9,0.9-10.7,2.6c-2.8,1.8-4.2,4.4-4.2,8c0,3.6,1.4,6.3,4.2,8.2
		c2.8,1.9,8.7,3.9,17.7,6.1c9,2.2,15.8,5.2,20.4,9.2c4.6,4,6.9,9.8,6.9,17.5c0,7.7-2.9,13.9-8.7,18.7c-5.8,4.8-13.4,7.2-22.8,7.2
		c-13.8,0-26-4.7-36.7-14.2l9.3-11.2c8.9,7.7,18.2,11.6,27.7,11.6c4.8,0,8.6-1,11.4-3.1c2.8-2.1,4.2-4.8,4.2-8.2c0-3.4-1.3-6-4-7.9
		c-2.6-1.9-7.2-3.6-13.7-5.2c-6.5-1.5-11.4-3-14.8-4.3c-3.3-1.3-6.3-3-8.9-5.1c-5.2-3.9-7.8-10-7.8-18.1c0-8.2,3-14.4,8.9-18.9
		c5.9-4.4,13.3-6.6,22-6.6c5.6,0,11.2,0.9,16.8,2.8c5.5,1.8,10.3,4.4,14.4,7.8l-7.9,11.2c-2.6-2.3-6.1-4.3-10.6-5.8
		C2263,1440.1,2258.6,1439.4,2254.3,1439.4"/>
	<rect x="2345.7" y="1472.7" fill="#243344" width="975.7" height="10.9"/>
	<rect x="93.5" y="1472.7" fill="#243344" width="967" height="10.9"/>
</g>
</svg>
